<svg width="107" height="20" viewBox="0 0 107 20" fill="none" xmlns="http://www.w3.org/2000/svg">
<path d="M6.42188 16.3164C6.42188 16.957 6.48828 17.4258 6.62109 17.7227C6.75391 18.0117 6.99219 18.207 7.33594 18.3086C7.6875 18.4102 8.23828 18.4648 8.98828 18.4727V19C7.01953 18.9531 5.55469 18.9297 4.59375 18.9297C4.13281 18.9297 2.87109 18.9531 0.808594 19V18.5195C1.33984 18.4961 1.72656 18.4336 1.96875 18.332C2.21094 18.2305 2.375 18.043 2.46094 17.7695C2.55469 17.4961 2.60156 17.0586 2.60156 16.457V4.55078C2.60156 3.94922 2.55469 3.51172 2.46094 3.23828C2.375 2.96484 2.21094 2.77734 1.96875 2.67578C1.72656 2.57422 1.33984 2.51172 0.808594 2.48828V2.00781C1.61328 2.05469 2.82812 2.07812 4.45312 2.07812C5.09375 2.07812 5.80469 2.07031 6.58594 2.05469C7.36719 2.03906 7.91016 2.03125 8.21484 2.03125C9.66797 2.03125 10.8906 2.23047 11.8828 2.62891C12.8828 3.01953 13.6289 3.57031 14.1211 4.28125C14.6211 4.99219 14.8711 5.82031 14.8711 6.76562C14.8711 7.64062 14.6484 8.48438 14.2031 9.29688C13.7578 10.1094 13 10.7852 11.9297 11.3242C10.8594 11.8633 9.44531 12.1328 7.6875 12.1328H6.42188V16.3164ZM7.45312 11.6523C8.75781 11.6523 9.65625 11.2383 10.1484 10.4102C10.6406 9.57422 10.8867 8.44531 10.8867 7.02344C10.8867 5.46875 10.6562 4.32422 10.1953 3.58984C9.73438 2.85547 8.97266 2.48828 7.91016 2.48828C7.48047 2.48828 7.16016 2.54688 6.94922 2.66406C6.74609 2.77344 6.60547 2.97266 6.52734 3.26172C6.45703 3.54297 6.42188 3.97266 6.42188 4.55078V11.6523H7.45312ZM22.9852 6.26172C24.8133 6.26172 26.2469 6.78516 27.2859 7.83203C28.3328 8.87891 28.8563 10.5391 28.8563 12.8125C28.8563 15.0781 28.3328 16.7344 27.2859 17.7812C26.2469 18.8203 24.8133 19.3398 22.9852 19.3398C21.157 19.3398 19.7195 18.8203 18.6727 17.7812C17.6258 16.7344 17.1023 15.0781 17.1023 12.8125C17.1023 10.5469 17.6258 8.89062 18.6727 7.84375C19.7195 6.78906 21.157 6.26172 22.9852 6.26172ZM22.9852 6.73047C22.2977 6.73047 21.7469 7.23047 21.3328 8.23047C20.9266 9.23047 20.7234 10.7578 20.7234 12.8125C20.7234 14.8594 20.9266 16.3789 21.3328 17.3711C21.7469 18.3633 22.2977 18.8594 22.9852 18.8594C23.6805 18.8594 24.2273 18.3672 24.6258 17.3828C25.032 16.3906 25.2352 14.8672 25.2352 12.8125C25.2352 10.75 25.032 9.22266 24.6258 8.23047C24.2273 7.23047 23.6805 6.73047 22.9852 6.73047ZM32.6812 14.3711C32.8375 15.7539 33.1734 16.8359 33.6891 17.6172C34.2125 18.3984 34.9508 18.7891 35.9039 18.7891C36.3727 18.7891 36.7711 18.6484 37.0992 18.3672C37.4352 18.0781 37.6031 17.6484 37.6031 17.0781C37.6031 16.6328 37.5016 16.2344 37.2984 15.8828C37.1031 15.5312 36.8531 15.2188 36.5484 14.9453C36.2437 14.6719 35.7867 14.2969 35.1773 13.8203C34.4352 13.2188 33.8766 12.7461 33.5016 12.4023C33.1344 12.0586 32.818 11.6523 32.5523 11.1836C32.2867 10.707 32.1539 10.168 32.1539 9.56641C32.1539 8.87891 32.3414 8.28516 32.7164 7.78516C33.0914 7.28516 33.5953 6.90625 34.2281 6.64844C34.8609 6.39062 35.5484 6.26172 36.2906 6.26172C36.9 6.26172 37.4586 6.33594 37.9664 6.48438C38.4742 6.63281 38.8727 6.80469 39.1617 7C39.318 7.10938 39.4586 7.16406 39.5836 7.16406C39.8805 7.16406 40.068 6.87109 40.1461 6.28516H40.6734C40.6109 7.08984 40.5797 8.49609 40.5797 10.5039H40.0523C39.9117 9.45703 39.5953 8.57812 39.1031 7.86719C38.6187 7.14844 37.9117 6.78906 36.982 6.78906C36.5055 6.78906 36.1148 6.92578 35.8102 7.19922C35.5055 7.47266 35.3531 7.84766 35.3531 8.32422C35.3531 8.86328 35.5328 9.32812 35.8922 9.71875C36.2516 10.1094 36.6852 10.4844 37.193 10.8438C37.7008 11.2031 38.0719 11.4727 38.3062 11.6523C38.9625 12.1445 39.482 12.5742 39.8648 12.9414C40.2555 13.3086 40.5719 13.7266 40.8141 14.1953C41.0562 14.6562 41.1773 15.1875 41.1773 15.7891C41.1773 16.4922 40.9703 17.1133 40.5562 17.6523C40.15 18.1914 39.5992 18.6094 38.9039 18.9062C38.2086 19.1953 37.4469 19.3398 36.6187 19.3398C35.7672 19.3398 35.025 19.1719 34.3922 18.8359C33.9156 18.5938 33.5406 18.4258 33.2672 18.332C33.2203 18.3164 33.1812 18.3086 33.15 18.3086C32.8922 18.3086 32.7047 18.5938 32.5875 19.1641H32.0602C32.1227 18.25 32.1539 16.6523 32.1539 14.3711H32.6812ZM51.5648 6.61328V7.09375H48.7289V16.7734C48.7289 17.25 48.8148 17.5898 48.9867 17.793C49.1586 17.9883 49.4242 18.0859 49.7836 18.0859C50.4633 18.0859 51.0062 17.6055 51.4125 16.6445L51.8227 16.8672C51.2211 18.5156 50.1273 19.3398 48.5414 19.3398C47.4867 19.3398 46.6859 19.0664 46.1391 18.5195C45.8031 18.1914 45.5727 17.7773 45.4477 17.2773C45.3305 16.7695 45.2719 16.0703 45.2719 15.1797V7.09375H43.2562V6.61328H45.2719V3.42578C46.5922 3.42578 47.7445 3.16797 48.7289 2.65234V6.61328H51.5648ZM74.3859 2.48828C73.8469 2.51172 73.4562 2.57422 73.2141 2.67578C72.9719 2.77734 72.8039 2.96484 72.7102 3.23828C72.6242 3.51172 72.5812 3.94922 72.5812 4.55078V16.457C72.5812 17.0586 72.6242 17.4961 72.7102 17.7695C72.8039 18.043 72.9719 18.2305 73.2141 18.332C73.4641 18.4336 73.8547 18.4961 74.3859 18.5195V19C73.4953 18.9531 72.2375 18.9297 70.6125 18.9297C68.9016 18.9297 67.6398 18.9531 66.8273 19V18.5195C67.4055 18.4961 67.8234 18.4336 68.0812 18.332C68.3469 18.2305 68.5266 18.043 68.6203 17.7695C68.7219 17.4961 68.7727 17.0586 68.7727 16.457V3.90625L62.9836 19.0234H62.5969L56.1164 3.56641V15.0625C56.1164 16.0078 56.1672 16.7031 56.2687 17.1484C56.3703 17.5859 56.5773 17.9062 56.8898 18.1094C57.2102 18.3125 57.7297 18.4492 58.4484 18.5195V19C57.8312 18.9531 56.968 18.9297 55.8586 18.9297C54.9758 18.9297 54.2805 18.9531 53.7727 19V18.5195C54.2961 18.4492 54.6789 18.3164 54.9211 18.1211C55.1711 17.918 55.3391 17.6133 55.425 17.207C55.5187 16.793 55.5656 16.1758 55.5656 15.3555V4.55078C55.5656 3.94922 55.5187 3.51172 55.425 3.23828C55.3391 2.96484 55.175 2.77734 54.9328 2.67578C54.6906 2.57422 54.3039 2.51172 53.7727 2.48828V2.00781C54.2805 2.05469 54.9758 2.07812 55.8586 2.07812C57.3273 2.07812 58.5891 2.05469 59.6437 2.00781L64.4836 13.668L68.9133 2.07812H70.6125C72.2375 2.07812 73.4953 2.05469 74.3859 2.00781V2.48828ZM80.4492 11.582C80.4258 11.8164 80.4141 12.1914 80.4141 12.707C80.4141 13.7695 80.5625 14.6523 80.8594 15.3555C81.1562 16.0508 81.5391 16.5625 82.0078 16.8906C82.4844 17.2109 82.9922 17.3711 83.5312 17.3711C84.8516 17.3711 85.9102 16.7305 86.707 15.4492L87.1289 15.5898C86.9258 16.2461 86.6094 16.8594 86.1797 17.4297C85.7578 17.9922 85.2188 18.4531 84.5625 18.8125C83.9141 19.1641 83.1719 19.3398 82.3359 19.3398C81.2344 19.3398 80.2656 19.1055 79.4297 18.6367C78.6016 18.168 77.9531 17.457 77.4844 16.5039C77.0234 15.543 76.793 14.3516 76.793 12.9297C76.793 11.4766 77.043 10.2539 77.543 9.26172C78.043 8.26172 78.7344 7.51172 79.6172 7.01172C80.5 6.51172 81.5195 6.26172 82.6758 6.26172C85.6836 6.26172 87.1875 8.03516 87.1875 11.582H80.4492ZM84.1641 11.125C84.1875 9.875 84.0586 8.83594 83.7773 8.00781C83.5039 7.17969 83.0859 6.76562 82.5234 6.76562C81.9531 6.76562 81.4766 7.12109 81.0938 7.83203C80.7188 8.53516 80.4883 9.63281 80.4023 11.125H84.1641ZM94.6687 16.7734C94.6687 17.2188 94.7156 17.5664 94.8094 17.8164C94.9109 18.0664 95.0711 18.2422 95.2898 18.3438C95.5164 18.4453 95.8211 18.4961 96.2039 18.4961V19C94.5477 18.9375 93.4773 18.9062 92.993 18.9062C92.4383 18.9062 91.3328 18.9375 89.6766 19V18.4961C90.0594 18.4961 90.3602 18.4453 90.5789 18.3438C90.7977 18.2422 90.9578 18.0664 91.0594 17.8164C91.1609 17.5664 91.2117 17.2188 91.2117 16.7734V3.08594C91.2117 2.34375 91.0945 1.80859 90.8602 1.48047C90.6336 1.14453 90.2391 0.976562 89.6766 0.976562V0.472656C90.1844 0.519531 90.6805 0.542969 91.1648 0.542969C92.5711 0.542969 93.7391 0.429687 94.6687 0.203125V16.7734ZM106.17 6.61328V7.09375H103.334V16.7734C103.334 17.25 103.42 17.5898 103.591 17.793C103.763 17.9883 104.029 18.0859 104.388 18.0859C105.068 18.0859 105.611 17.6055 106.017 16.6445L106.427 16.8672C105.826 18.5156 104.732 19.3398 103.146 19.3398C102.091 19.3398 101.291 19.0664 100.744 18.5195C100.408 18.1914 100.177 17.7773 100.052 17.2773C99.9352 16.7695 99.8766 16.0703 99.8766 15.1797V7.09375H97.8609V6.61328H99.8766V3.42578C101.197 3.42578 102.349 3.16797 103.334 2.65234V6.61328H106.17Z" fill="#323232"/>
</svg>
