<svg width="103" height="20" viewBox="0 0 103 20" fill="none" xmlns="http://www.w3.org/2000/svg">
<path d="M6.048 17.392C6.48 17.456 6.904 17.552 7.32 17.68C7.752 17.792 8.136 17.928 8.472 18.088V19H0.48V18.088C0.784 17.912 1.104 17.768 1.44 17.656C1.792 17.544 2.128 17.456 2.448 17.392V3.808C2.08 3.744 1.728 3.656 1.392 3.544C1.056 3.416 0.752 3.272 0.48 3.112V2.2H3.504C4.144 2.2 4.872 2.168 5.688 2.104C6.52 2.04 7.28 2.008 7.968 2.008C8.816 2.008 9.64 2.096 10.44 2.272C11.256 2.432 11.976 2.712 12.6 3.112C13.24 3.512 13.752 4.048 14.136 4.72C14.52 5.376 14.712 6.2 14.712 7.192C14.712 8.136 14.52 8.952 14.136 9.64C13.768 10.328 13.272 10.896 12.648 11.344C12.024 11.792 11.304 12.128 10.488 12.352C9.672 12.56 8.832 12.664 7.968 12.664C7.888 12.664 7.76 12.664 7.584 12.664C7.408 12.664 7.216 12.664 7.008 12.664C6.816 12.648 6.624 12.64 6.432 12.64C6.256 12.624 6.128 12.608 6.048 12.592V17.392ZM7.344 3.568C7.024 3.568 6.768 3.584 6.576 3.616C6.4 3.632 6.224 3.664 6.048 3.712V11.008C6.192 11.056 6.408 11.088 6.696 11.104C6.984 11.104 7.216 11.104 7.392 11.104C7.824 11.104 8.24 11.032 8.64 10.888C9.04 10.744 9.392 10.52 9.696 10.216C10.016 9.912 10.272 9.52 10.464 9.04C10.656 8.56 10.752 7.984 10.752 7.312C10.752 6.032 10.44 5.088 9.816 4.48C9.192 3.872 8.368 3.568 7.344 3.568ZM16.0956 13C16.0956 12.024 16.2396 11.152 16.5276 10.384C16.8316 9.6 17.2556 8.936 17.7996 8.392C18.3596 7.848 19.0316 7.432 19.8156 7.144C20.5996 6.856 21.4876 6.712 22.4796 6.712C23.5996 6.712 24.5596 6.872 25.3596 7.192C26.1756 7.496 26.8396 7.928 27.3516 8.488C27.8796 9.032 28.2636 9.696 28.5036 10.48C28.7436 11.248 28.8636 12.088 28.8636 13C28.8636 13.976 28.7196 14.856 28.4316 15.64C28.1436 16.408 27.7196 17.064 27.1596 17.608C26.6156 18.152 25.9436 18.568 25.1436 18.856C24.3596 19.144 23.4716 19.288 22.4796 19.288C21.3916 19.288 20.4476 19.136 19.6476 18.832C18.8476 18.512 18.1836 18.08 17.6556 17.536C17.1276 16.976 16.7356 16.312 16.4796 15.544C16.2236 14.76 16.0956 13.912 16.0956 13ZM19.8156 13C19.8156 13.72 19.8556 14.384 19.9356 14.992C20.0316 15.584 20.1916 16.088 20.4156 16.504C20.6396 16.92 20.9436 17.248 21.3276 17.488C21.7116 17.712 22.2076 17.824 22.8156 17.824C23.1676 17.824 23.4876 17.744 23.7756 17.584C24.0636 17.408 24.3116 17.136 24.5196 16.768C24.7276 16.384 24.8796 15.888 24.9756 15.28C25.0876 14.656 25.1436 13.896 25.1436 13C25.1436 12.264 25.0956 11.6 24.9996 11.008C24.9196 10.416 24.7676 9.912 24.5436 9.496C24.3356 9.08 24.0476 8.76 23.6796 8.536C23.3116 8.296 22.8476 8.176 22.2876 8.176C21.8716 8.176 21.5116 8.264 21.2076 8.44C20.9036 8.6 20.6476 8.872 20.4396 9.256C20.2316 9.624 20.0716 10.12 19.9596 10.744C19.8636 11.352 19.8156 12.104 19.8156 13ZM36.5136 16.384C36.5136 15.968 36.3616 15.608 36.0576 15.304C35.7696 15 35.4016 14.72 34.9536 14.464C34.5216 14.208 34.0416 13.952 33.5136 13.696C33.0016 13.44 32.5216 13.144 32.0736 12.808C31.6416 12.456 31.2736 12.048 30.9696 11.584C30.6816 11.12 30.5376 10.552 30.5376 9.88C30.5376 9.4 30.6496 8.968 30.8736 8.584C31.0976 8.184 31.4016 7.848 31.7856 7.576C32.1696 7.304 32.6256 7.096 33.1536 6.952C33.6976 6.792 34.2816 6.712 34.9056 6.712C35.7696 6.712 36.5696 6.784 37.3056 6.928C38.0576 7.056 38.7136 7.24 39.2736 7.48C39.2096 7.992 39.0816 8.544 38.8896 9.136C38.6976 9.712 38.5136 10.24 38.3376 10.72H37.5216L36.5136 8.272C36.3216 8.192 36.1216 8.144 35.9136 8.128C35.7056 8.096 35.4736 8.08 35.2176 8.08C34.7376 8.08 34.3696 8.224 34.1136 8.512C33.8736 8.784 33.7536 9.096 33.7536 9.448C33.7536 9.848 33.8976 10.2 34.1856 10.504C34.4896 10.792 34.8576 11.064 35.2896 11.32C35.7376 11.576 36.2176 11.832 36.7296 12.088C37.2576 12.344 37.7376 12.64 38.1696 12.976C38.6176 13.296 38.9856 13.68 39.2736 14.128C39.5776 14.576 39.7296 15.112 39.7296 15.736C39.7296 16.84 39.2816 17.712 38.3856 18.352C37.4896 18.976 36.2896 19.288 34.7856 19.288C34.0176 19.288 33.2256 19.208 32.4096 19.048C31.5936 18.888 30.8896 18.664 30.2976 18.376C30.3296 17.8 30.4656 17.216 30.7056 16.624C30.9456 16.032 31.2016 15.504 31.4736 15.04H32.2896L33.4656 17.656C33.6416 17.784 33.8336 17.864 34.0416 17.896C34.2656 17.912 34.4736 17.92 34.6656 17.92C35.1296 17.92 35.5536 17.784 35.9376 17.512C36.3216 17.24 36.5136 16.864 36.5136 16.384ZM40.6451 7.576C41.2531 7.192 41.8931 6.92 42.5651 6.76V4.816C42.6931 4.72 43.0051 4.584 43.5011 4.408C44.0131 4.216 44.5811 4.064 45.2051 3.952H46.0211V7H49.1891V8.512H46.0211V14.728C46.0211 15.72 46.1411 16.408 46.3811 16.792C46.6371 17.176 47.0531 17.368 47.6291 17.368C47.9171 17.368 48.2371 17.352 48.5891 17.32C48.9571 17.272 49.2931 17.192 49.5971 17.08L49.7651 17.872C49.6211 18.016 49.4051 18.168 49.1171 18.328C48.8451 18.488 48.5251 18.64 48.1571 18.784C47.8051 18.928 47.4131 19.048 46.9811 19.144C46.5651 19.24 46.1251 19.288 45.6611 19.288C44.6211 19.288 43.8451 19.016 43.3331 18.472C42.8211 17.928 42.5651 17.048 42.5651 15.832V8.512H40.6451V7.576ZM71.8551 19H64.6791V18.088C64.9991 17.928 65.3111 17.792 65.6151 17.68C65.9191 17.568 66.2471 17.472 66.5991 17.392V7.36L66.7191 4.552H66.5271L65.7351 7.12L61.1031 19H59.9991L55.3911 7.216L54.5271 4.408H54.3111L54.3351 7.456V17.296C54.6391 17.36 54.9751 17.464 55.3431 17.608C55.7111 17.752 56.0551 17.912 56.3751 18.088V19H50.5191V18.088C50.7751 17.96 51.0871 17.808 51.4551 17.632C51.8391 17.456 52.1991 17.336 52.5351 17.272V3.808C52.2151 3.744 51.8711 3.656 51.5031 3.544C51.1511 3.432 50.8391 3.288 50.5671 3.112V2.2H57.0711L60.7431 11.968L61.4391 14.272H61.4631L62.1831 11.92L65.9271 2.2H71.8791V3.112C71.6071 3.272 71.3111 3.416 70.9911 3.544C70.6871 3.656 70.3751 3.744 70.0551 3.808V17.416C70.3911 17.48 70.7111 17.576 71.0151 17.704C71.3351 17.832 71.6151 17.96 71.8551 18.088V19ZM84.0156 16.984C83.8876 17.256 83.6796 17.536 83.3916 17.824C83.1196 18.096 82.7756 18.344 82.3596 18.568C81.9596 18.776 81.4876 18.944 80.9436 19.072C80.4156 19.216 79.8396 19.288 79.2156 19.288C78.2236 19.288 77.3436 19.144 76.5756 18.856C75.8076 18.552 75.1676 18.128 74.6556 17.584C74.1436 17.024 73.7516 16.36 73.4796 15.592C73.2236 14.824 73.0956 13.96 73.0956 13C73.0956 10.952 73.6316 9.392 74.7036 8.32C75.7756 7.248 77.2636 6.712 79.1676 6.712C79.9836 6.712 80.7436 6.824 81.4476 7.048C82.1676 7.272 82.7596 7.64 83.2236 8.152C83.7036 8.664 84.0316 9.336 84.2076 10.168C84.3996 11 84.3916 12.016 84.1836 13.216H76.8156C76.8316 14.48 77.1516 15.488 77.7756 16.24C78.4156 16.992 79.3516 17.368 80.5836 17.368C81.1116 17.368 81.6556 17.288 82.2156 17.128C82.7916 16.968 83.2396 16.76 83.5596 16.504L84.0156 16.984ZM79.0716 8.08C78.7516 8.08 78.4636 8.136 78.2076 8.248C77.9676 8.36 77.7516 8.568 77.5596 8.872C77.3836 9.16 77.2396 9.56 77.1276 10.072C77.0156 10.568 76.9356 11.2 76.8876 11.968H80.7516C80.8636 10.72 80.7916 9.76 80.5356 9.088C80.2796 8.416 79.7916 8.08 79.0716 8.08ZM92.6102 19H85.9862V18.064C86.5142 17.808 87.0422 17.616 87.5702 17.488V2.944L85.7462 2.752V1.816C85.9542 1.72 86.2422 1.624 86.6102 1.528C86.9782 1.432 87.3702 1.352 87.7862 1.288C88.2182 1.208 88.6422 1.144 89.0582 1.096C89.4902 1.032 89.8742 0.983999 90.2102 0.951999H91.0262V17.488C91.5542 17.616 92.0822 17.808 92.6102 18.064V19ZM93.4029 7.576C94.0109 7.192 94.6509 6.92 95.3229 6.76V4.816C95.4509 4.72 95.7629 4.584 96.2589 4.408C96.7709 4.216 97.3389 4.064 97.9629 3.952H98.7789V7H101.947V8.512H98.7789V14.728C98.7789 15.72 98.8989 16.408 99.1389 16.792C99.3949 17.176 99.8109 17.368 100.387 17.368C100.675 17.368 100.995 17.352 101.347 17.32C101.715 17.272 102.051 17.192 102.355 17.08L102.523 17.872C102.379 18.016 102.163 18.168 101.875 18.328C101.603 18.488 101.283 18.64 100.915 18.784C100.563 18.928 100.171 19.048 99.7389 19.144C99.3229 19.24 98.8829 19.288 98.4189 19.288C97.3789 19.288 96.6029 19.016 96.0909 18.472C95.5789 17.928 95.3229 17.048 95.3229 15.832V8.512H93.4029V7.576Z" fill="#323232"/>
</svg>
